<?xml version="1.0" encoding="UTF-8" standalone="no"?>
<svg
   xmlns:ooo="http://xml.openoffice.org/svg/export"
   xmlns:dc="http://purl.org/dc/elements/1.1/"
   xmlns:cc="http://creativecommons.org/ns#"
   xmlns:rdf="http://www.w3.org/1999/02/22-rdf-syntax-ns#"
   xmlns:svg="http://www.w3.org/2000/svg"
   xmlns="http://www.w3.org/2000/svg"
   xmlns:sodipodi="http://sodipodi.sourceforge.net/DTD/sodipodi-0.dtd"
   xmlns:inkscape="http://www.inkscape.org/namespaces/inkscape"
   version="1.2"
   width="157.5"
   height="157.5"
   viewBox="0 0 4445 4445"
   preserveAspectRatio="xMidYMid"
   clip-path="url(#presentation_clip_path)"
   xml:space="preserve"
   id="svg2"
   inkscape:version="0.48.4 r9939"
   sodipodi:docname="icon.svg"
   style="fill-rule:evenodd;stroke-width:28.22200012;stroke-linejoin:round"><metadata
     id="metadata80"><rdf:RDF><cc:Work
         rdf:about=""><dc:format>image/svg+xml</dc:format><dc:type
           rdf:resource="http://purl.org/dc/dcmitype/StillImage" /></cc:Work></rdf:RDF></metadata><sodipodi:namedview
     pagecolor="#ffffff"
     bordercolor="#666666"
     borderopacity="1"
     objecttolerance="10"
     gridtolerance="10"
     guidetolerance="10"
     inkscape:pageopacity="0"
     inkscape:pageshadow="2"
     inkscape:window-width="1538"
     inkscape:window-height="982"
     id="namedview78"
     showgrid="false"
     units="in"
     inkscape:zoom="3.8141414"
     inkscape:cx="143.20038"
     inkscape:cy="68.66306"
     inkscape:window-x="2277"
     inkscape:window-y="195"
     inkscape:window-maximized="0"
     inkscape:current-layer="svg2" /><defs
     class="ClipPathGroup"
     id="defs4"><clipPath
       id="presentation_clip_path"
       clipPathUnits="userSpaceOnUse"><rect
         x="0"
         y="0"
         width="21590"
         height="27940"
         id="rect7" /></clipPath></defs><defs
     class="TextShapeIndex"
     id="defs9"><g
       ooo:slide="id1"
       ooo:id-list="id3 id4"
       id="g11" /></defs><defs
     class="EmbeddedBulletChars"
     id="defs13"><g
       id="bullet-char-template(57356)"
       transform="scale(4.8828125e-4,-4.8828125e-4)"><path
         d="M 580,1141 1163,571 580,0 -4,571 580,1141 z"
         id="path16"
         inkscape:connector-curvature="0" /></g><g
       id="bullet-char-template(57354)"
       transform="scale(4.8828125e-4,-4.8828125e-4)"><path
         d="m 8,1128 1129,0 L 1137,0 8,0 8,1128 z"
         id="path19"
         inkscape:connector-curvature="0" /></g><g
       id="bullet-char-template(10146)"
       transform="scale(4.8828125e-4,-4.8828125e-4)"><path
         d="M 174,0 602,739 174,1481 1456,739 174,0 z m 1184,739 -1049,607 350,-607 699,0 z"
         id="path22"
         inkscape:connector-curvature="0" /></g><g
       id="bullet-char-template(10132)"
       transform="scale(4.8828125e-4,-4.8828125e-4)"><path
         d="M 2015,739 1276,0 717,0 l 543,543 -1086,0 0,393 1086,0 -543,545 557,0 741,-742 z"
         id="path25"
         inkscape:connector-curvature="0" /></g><g
       id="bullet-char-template(10007)"
       transform="scale(4.8828125e-4,-4.8828125e-4)"><path
         d="m 0,-2 c -7,16 -16,29 -25,39 l 381,530 c -94,256 -141,385 -141,387 0,25 13,38 40,38 9,0 21,-2 34,-5 21,4 42,12 65,25 l 27,-13 111,-251 280,301 64,-25 24,25 c 21,-10 41,-24 62,-43 C 886,937 835,863 770,784 769,783 710,716 594,584 L 774,223 c 0,-27 -21,-55 -63,-84 l 16,-20 C 717,90 699,76 672,76 641,76 570,178 457,381 L 164,-76 c -22,-34 -53,-51 -92,-51 -42,0 -63,17 -64,51 -7,9 -10,24 -10,44 0,9 1,19 2,30 z"
         id="path28"
         inkscape:connector-curvature="0" /></g><g
       id="bullet-char-template(10004)"
       transform="scale(4.8828125e-4,-4.8828125e-4)"><path
         d="M 285,-33 C 182,-33 111,30 74,156 52,228 41,333 41,471 c 0,78 14,145 41,201 34,71 87,106 158,106 53,0 88,-31 106,-94 l 23,-176 c 8,-64 28,-97 59,-98 l 735,706 c 11,11 33,17 66,17 42,0 63,-15 63,-46 l 0,-122 c 0,-36 -10,-64 -30,-84 L 442,47 C 390,-6 338,-33 285,-33 z"
         id="path31"
         inkscape:connector-curvature="0" /></g><g
       id="bullet-char-template(9679)"
       transform="scale(4.8828125e-4,-4.8828125e-4)"><path
         d="M 813,0 C 632,0 489,54 383,161 276,268 223,411 223,592 c 0,181 53,324 160,431 106,107 249,161 430,161 179,0 323,-54 432,-161 108,-107 162,-251 162,-431 0,-180 -54,-324 -162,-431 C 1136,54 992,0 813,0 z"
         id="path34"
         inkscape:connector-curvature="0" /></g><g
       id="bullet-char-template(8226)"
       transform="scale(4.8828125e-4,-4.8828125e-4)"><path
         d="m 346,457 c -73,0 -137,26 -191,78 -54,51 -81,114 -81,188 0,73 27,136 81,188 54,52 118,78 191,78 73,0 134,-26 185,-79 51,-51 77,-114 77,-187 0,-75 -25,-137 -76,-188 -50,-52 -112,-78 -186,-78 z"
         id="path37"
         inkscape:connector-curvature="0" /></g><g
       id="bullet-char-template(8211)"
       transform="scale(4.8828125e-4,-4.8828125e-4)"><path
         d="m -4,459 1139,0 0,147 -1139,0 0,-147 z"
         id="path40"
         inkscape:connector-curvature="0" /></g></defs><defs
     class="TextEmbeddedBitmaps"
     id="defs42" /><g
     id="g44"
     transform="translate(0,-23495)"><g
       id="id2"
       class="Master_Slide"><g
         id="bg-id2"
         class="Background" /><g
         id="bo-id2"
         class="BackgroundObjects" /></g></g><g
     class="SlideGroup"
     id="g49"
     transform="translate(-6714.5,-1317)"><g
       id="g51"><g
         id="id1"
         class="Slide"
         clip-path="url(#presentation_clip_path)"><g
           class="Page"
           id="g54"><g
             class="Group"
             id="g56"><g
               class="com.sun.star.drawing.CustomShape"
               id="g58"><g
                 id="id3" /></g><g
               class="com.sun.star.drawing.ClosedBezierShape"
               id="g61"><g
                 id="id4"><path
                   d="m 7032,4651 158,-2540 1747,317 1666,-317 239,2540 -1905,317 -1905,-317 z m 721,-1068 0,-908 386,0 c 98,0 168,8 212,24 44,16 79,45 106,87 26,42 39,89 39,143 0,68 -20,125 -60,169 -40,44 -100,72 -179,84 39,23 72,48 98,76 26,28 60,77 104,147 l 111,178 -219,0 -133,-198 c -47,-71 -79,-115 -96,-134 -18,-18 -36,-30 -56,-37 -19,-7 -50,-10 -92,-10 l -37,0 0,379 -184,0 z m 184,-525 136,0 c 88,0 142,-3 164,-11 22,-7 39,-20 52,-38 12,-18 18,-41 18,-68 0,-31 -8,-55 -24,-74 -16,-19 -39,-31 -69,-36 -15,-2 -60,-3 -134,-3 l -143,0 0,230 z m 1307,61 -171,31 c -6,-34 -19,-60 -40,-77 -20,-18 -47,-26 -79,-26 -44,0 -78,14 -104,44 -26,30 -39,81 -39,151 0,78 13,133 40,165 26,32 61,49 105,49 33,0 60,-10 81,-29 21,-18 36,-51 45,-97 l 171,30 c -18,78 -52,137 -102,177 -51,40 -118,60 -203,61 -96,-1 -173,-31 -230,-92 -57,-60 -86,-144 -86,-252 0,-109 29,-193 86,-254 58,-60 135,-90 233,-90 80,0 144,17 191,51 48,35 82,87 102,158 z m 367,464 -325,-909 199,0 230,672 222,-672 195,0 -326,909 -195,0 z m -992,1068 79,-557 -396,0 635,-396 635,396 -397,0 79,557 -635,0 z"
                   id="path64"
                   inkscape:connector-curvature="0"
                   style="fill:#729fcf;stroke:none" /><path
                   d="m 7032,4651 158,-2540 1747,317 1666,-317 239,2540 -1905,317 -1905,-317 z"
                   id="path66"
                   inkscape:connector-curvature="0"
                   style="fill:none;stroke:#3465af" /><path
                   d="m 7753,3583 0,-908 386,0 c 98,0 168,8 212,24 44,16 79,45 106,87 26,42 39,89 39,143 0,68 -20,125 -60,169 -40,44 -100,72 -179,84 39,23 72,48 98,76 26,28 60,77 104,147 l 111,178 -219,0 -133,-198 c -47,-71 -79,-115 -96,-134 -18,-18 -36,-30 -56,-37 -19,-7 -50,-10 -92,-10 l -37,0 0,379 -184,0 z"
                   id="path68"
                   inkscape:connector-curvature="0"
                   style="fill:none;stroke:#3465af" /><path
                   d="m 7937,3058 136,0 c 88,0 142,-3 164,-11 22,-7 39,-20 52,-38 12,-18 18,-41 18,-68 0,-31 -8,-55 -24,-74 -16,-19 -39,-31 -69,-36 -15,-2 -60,-3 -134,-3 l -143,0 0,230 z"
                   id="path70"
                   inkscape:connector-curvature="0"
                   style="fill:none;stroke:#3465af" /><path
                   d="m 9244,3119 -171,31 c -6,-34 -19,-60 -40,-77 -20,-18 -47,-26 -79,-26 -44,0 -78,14 -104,44 -26,30 -39,81 -39,151 0,78 13,133 40,165 26,32 61,49 105,49 33,0 60,-10 81,-29 21,-18 36,-51 45,-97 l 171,30 c -18,78 -52,137 -102,177 -51,40 -118,60 -203,61 -96,-1 -173,-31 -230,-92 -57,-60 -86,-144 -86,-252 0,-109 29,-193 86,-254 58,-60 135,-90 233,-90 80,0 144,17 191,51 48,35 82,87 102,158 z"
                   id="path72"
                   inkscape:connector-curvature="0"
                   style="fill:none;stroke:#3465af" /><path
                   d="m 9611,3583 -325,-909 199,0 230,672 222,-672 195,0 -326,909 -195,0 z"
                   id="path74"
                   inkscape:connector-curvature="0"
                   style="fill:none;stroke:#3465af" /><path
                   d="m 8619,4651 79,-557 -396,0 635,-396 635,396 -397,0 79,557 -635,0 z"
                   id="path76"
                   inkscape:connector-curvature="0"
                   style="fill:none;stroke:#3465af" /></g></g></g></g></g></g></g></svg>